<?xml version="1.0" encoding="utf-8"?>
<svg xmlns="http://www.w3.org/2000/svg" viewBox="378.2617 366.353 328.4533 251.488" width="328.453px" height="251.488px">
  <defs>
    <style>.cls-1{fill:#3544b1;}</style>
  </defs>
  <path class="a" d="M 613.076 379.42 L 652.976 373.238 C 676.787 516.851 683.044 575.071 546.388 575.071 C 434.026 575.071 397.112 550.895 431.699 373.09 L 473.068 379.049 C 475.637 482.06 432.513 534.944 546.229 534.944 C 656.03 534.944 618.194 488.895 613.076 379.42 Z" style="fill: rgb(53, 73, 94);" transform="matrix(0.9999999999999999, 0, 0, 0.9999999999999999, -5.684341886080802e-14, 0)"/>
  <path class="b" d="M 652.979 373.234 L 693.304 366.353 C 715.578 517.117 733.143 617.841 546.388 617.841 C 352.994 617.841 369.517 516.496 390.197 366.414 L 431.699 373.09 C 415.464 512.711 396.655 575.071 546.388 575.071 C 685.464 575.071 674.683 514.805 652.979 373.234 Z" style="fill: rgb(65, 184, 131);" transform="matrix(0.9999999999999999, 0, 0, 0.9999999999999999, -5.684341886080802e-14, 0)"/>
</svg>
